<svg width="220" height="92" viewBox="0 0 220 92" fill="none" xmlns="http://www.w3.org/2000/svg">
<g clip-path="url(#clip0_133_2743)">
<path d="M19.2311 55.9358C24.9076 52.7435 33.7814 52.6452 35.3309 56.517C36.8775 60.7734 31.63 65.0804 28.1496 69.3368C26.6031 70.4962 22.1781 68.5141 19.4695 70.0611C19.4695 70.0611 28.2241 73.8107 28.6115 73.4232L70.2662 36.8448C64.0026 25.0683 51.6126 17.0474 37.3453 17.0474C16.7608 17.0474 0.0769043 33.739 0.0769043 54.3263C0.0769043 61.0506 1.85883 67.3576 4.97272 72.8062C4.97272 72.8062 8.64384 61.9418 19.2311 55.9358Z" fill="#00255C"/>
<path d="M69.2679 33.1484L34.7886 58.9727L64.6939 34.0337L69.2679 33.1484Z" fill="white"/>
<path d="M47.9146 42.3558L37.1575 45.0473C36.6241 45.1814 36.0758 45.247 35.5246 45.247H23.8795L14.4663 52.8983H12.2404L19.9611 45.247C19.9611 45.247 18.9092 45.3424 18.0093 45.095C16.1886 44.5942 15.6403 42.2246 18.8973 40.8714C17.5444 39.8073 10.3005 33.9116 10.3005 33.9116L11.8351 34.3259L23.7782 39.7328L50.5189 39.6345L47.9146 42.3558Z" fill="white"/>
<path d="M36.329 73.4143L72.5664 41.9626C72.2595 41.0475 71.9168 40.1503 71.5384 39.2681L32.196 73.4143H36.329Z" fill="#E13833"/>
<path d="M44.1867 73.4141L73.9728 47.563C73.797 46.5406 73.5854 45.5302 73.3292 44.5347L40.0537 73.4141H44.1867Z" fill="#E13833"/>
<path d="M52.0446 73.4143L74.5064 53.9179C74.5064 53.9 74.5064 53.8851 74.5064 53.8672C74.5064 52.7197 74.4527 51.587 74.3514 50.4663L47.9116 73.4143H52.0446Z" fill="#E13833"/>
<path d="M59.9023 73.4143L73.7464 61.3994C74.0236 60.0551 74.2232 58.684 74.3484 57.2891L55.7693 73.4143H59.9023Z" fill="#E13833"/>
<path d="M67.7599 73.4142L70.1795 71.3128C71.142 69.4946 71.9615 67.59 72.617 65.6108L63.627 73.4142H67.7599Z" fill="#E13833"/>
<path d="M57.1846 24.967C56.1328 24.2784 55.0124 23.7062 53.8741 23.1845C53.3079 22.9133 52.7239 22.6927 52.1428 22.4573C51.5588 22.2337 50.9658 22.037 50.3758 21.8284C48.0009 21.0504 45.5515 20.502 43.0723 20.2456C40.5931 20.0042 38.096 19.9118 35.6138 20.1204C33.1376 20.3529 30.6614 20.7136 28.2805 21.4349C27.0707 21.724 25.9146 22.189 24.7376 22.5944C24.1595 22.8239 23.5963 23.0892 23.0272 23.3366C22.7441 23.4647 22.455 23.581 22.1749 23.7181L21.3495 24.1533L20.5241 24.5884C20.247 24.7315 19.9729 24.8776 19.7106 25.0474L18.1194 26.0251C17.1003 26.7375 16.0574 27.426 15.0949 28.2189C13.1402 29.7658 11.3284 31.5005 9.72531 33.4201C8.11324 35.3277 6.69485 37.4201 5.72046 39.742C6.13167 38.5557 6.6591 37.3992 7.30869 36.3202C7.94041 35.2263 8.6645 34.1891 9.43031 33.1846C10.9917 31.1965 12.7796 29.3873 14.7195 27.7598C15.673 26.9253 16.713 26.198 17.7499 25.4707L19.362 24.4603C19.6272 24.2844 19.9043 24.1324 20.1844 23.9863L21.0217 23.5363L21.8591 23.0862C22.1422 22.9431 22.4342 22.8209 22.7232 22.6898C23.3043 22.4334 23.8764 22.1592 24.4634 21.9178C25.6583 21.4915 26.8353 21.0027 28.069 20.7017C32.9648 19.3485 38.1199 19.0027 43.1438 19.6674C45.6558 20.0012 48.1231 20.6212 50.498 21.4826C51.085 21.7181 51.675 21.9446 52.2531 22.198C52.8252 22.4632 53.4062 22.7136 53.9605 23.0117C55.0869 23.572 56.1775 24.2099 57.1846 24.967Z" fill="white"/>
<path d="M91.3809 19.2499C86.4255 17.0829 81.3091 17.4078 73.1624 20.3825C71.6873 20.922 69.2231 21.8371 66.1807 22.9697L65.7516 3.86379L58.2425 0.692383L57.0208 1.33322L62.745 4.81759L56.7526 26.5047C44.5145 31.089 31.1948 36.1084 27.5267 37.4914L27.3598 37.4198L26.5851 31.244L24.5052 32.1709L23.6917 35.855L11.2689 30.5614L7.47559 31.7566L19.5587 40.9668C15.9174 42.1591 16.862 44.1829 17.8781 44.5972C18.033 44.6598 18.5485 44.7075 19.3143 44.7433L12.2075 52.4184L14.3917 52.4125L23.7811 44.8059C29.0792 44.785 36.2128 44.5346 37.658 44.1114C39.3625 43.6106 41.1086 43.402 47.8459 41.1814L29.395 60.9669L23.5099 59.2381L21.6594 59.8224L27.4909 62.8328L31.469 61.578L65.4834 34.937C76.2941 30.9429 86.5506 27.1486 89.5632 25.2022C92.9393 23.0144 94.3398 20.8952 91.3809 19.2499Z" fill="#E13833"/>
<path d="M78.1357 26.2544C78.0194 26.2932 77.8913 26.2306 77.8496 26.1113L77.6738 25.5808C77.6351 25.4645 77.6976 25.3364 77.8168 25.2946C77.933 25.2559 78.0612 25.3185 78.1029 25.4377L78.2787 25.9683C78.3174 26.0875 78.2549 26.2157 78.1357 26.2544Z" fill="white"/>
<path d="M77.2504 26.5493C77.1342 26.5881 77.0061 26.5255 76.9643 26.4063L76.7885 25.8757C76.7498 25.7595 76.8124 25.6313 76.9316 25.5896C77.0478 25.5508 77.1759 25.6134 77.2176 25.7326L77.3934 26.2632C77.4322 26.3824 77.3696 26.5106 77.2504 26.5493Z" fill="white"/>
<path d="M76.3654 26.8447C76.2492 26.8835 76.1211 26.8209 76.0793 26.7017L75.9035 26.1711C75.8648 26.0549 75.9274 25.9267 76.0466 25.885C76.1628 25.8462 76.2909 25.9088 76.3326 26.0281L76.5084 26.5586C76.5472 26.6778 76.4816 26.806 76.3654 26.8447Z" fill="white"/>
<path d="M75.4806 27.1397C75.3644 27.1784 75.2363 27.1158 75.1946 26.9966L75.0188 26.466C74.98 26.3498 75.0426 26.2216 75.1618 26.1799C75.278 26.1412 75.4061 26.2037 75.4479 26.323L75.6237 26.8535C75.6624 26.9728 75.5968 27.1009 75.4806 27.1397Z" fill="white"/>
<path d="M74.5956 27.4346C74.4794 27.4733 74.3513 27.4107 74.3096 27.2915L74.1338 26.761C74.095 26.6447 74.1576 26.5166 74.2768 26.4748C74.393 26.4361 74.5211 26.4987 74.5628 26.6179L74.7387 27.1485C74.7774 27.2677 74.7118 27.3958 74.5956 27.4346Z" fill="white"/>
<path d="M73.7077 27.73C73.5915 27.7688 73.4633 27.7062 73.4216 27.5869L73.2458 27.0564C73.2071 26.9401 73.2697 26.812 73.3888 26.7702C73.5051 26.7315 73.6332 26.7941 73.6749 26.9133L73.8507 27.4439C73.8895 27.5631 73.8269 27.6913 73.7077 27.73Z" fill="white"/>
<path d="M72.8227 28.0249C72.7065 28.0637 72.5783 28.0011 72.5366 27.8819L72.3608 27.3513C72.3221 27.2351 72.3846 27.1069 72.5038 27.0652C72.62 27.0264 72.7482 27.089 72.7899 27.2082L72.9657 27.7388C73.0044 27.858 72.9419 27.9862 72.8227 28.0249Z" fill="white"/>
<path d="M71.9374 28.3198C71.8212 28.3586 71.6931 28.296 71.6514 28.1768L71.4756 27.6462C71.4368 27.53 71.4994 27.4018 71.6186 27.3601C71.7348 27.3213 71.8629 27.3839 71.9046 27.5031L72.0805 28.0337C72.1192 28.1529 72.0536 28.2811 71.9374 28.3198Z" fill="white"/>
<path d="M71.0524 28.6153C70.9362 28.654 70.8081 28.5914 70.7664 28.4722L70.5905 27.9416C70.5518 27.8254 70.6144 27.6972 70.7336 27.6555C70.8498 27.6167 70.9779 27.6793 71.0196 27.7986L71.1954 28.3291C71.2342 28.4483 71.1686 28.5765 71.0524 28.6153Z" fill="white"/>
<path d="M70.1676 28.9102C70.0514 28.9489 69.9233 28.8863 69.8816 28.7671L69.7058 28.2366C69.667 28.1203 69.7296 27.9921 69.8488 27.9504C69.965 27.9117 70.0932 27.9743 70.1349 28.0935L70.3107 28.624C70.3494 28.7433 70.2839 28.8714 70.1676 28.9102Z" fill="white"/>
<path d="M69.2795 29.2051C69.1633 29.2438 69.0351 29.1813 68.9934 29.062L68.8176 28.5315C68.7789 28.4152 68.8414 28.2871 68.9606 28.2453C69.0768 28.2066 69.205 28.2692 69.2467 28.3884L69.4225 28.919C69.4612 29.0382 69.3987 29.1664 69.2795 29.2051Z" fill="white"/>
<path d="M68.3945 29.5005C68.2782 29.5393 68.1501 29.4767 68.1084 29.3574L67.9326 28.8269C67.8938 28.7106 67.9564 28.5825 68.0756 28.5407C68.1918 28.502 68.32 28.5646 68.3617 28.6838L68.5375 29.2144C68.5762 29.3306 68.5136 29.4588 68.3945 29.5005Z" fill="white"/>
<path d="M67.5094 29.7954C67.3932 29.8342 67.2651 29.7716 67.2234 29.6524L67.0476 29.1218C67.0088 29.0056 67.0714 28.8774 67.1906 28.8357C67.3068 28.7969 67.435 28.8595 67.4767 28.9787L67.6525 29.5093C67.6912 29.6255 67.6257 29.7537 67.5094 29.7954Z" fill="white"/>
<path d="M66.6247 30.0904C66.5085 30.1291 66.3803 30.0665 66.3386 29.9473L66.1628 29.4167C66.1241 29.3005 66.1866 29.1723 66.3058 29.1306C66.4221 29.0918 66.5502 29.1544 66.5919 29.2737L66.7677 29.8042C66.8064 29.9205 66.7409 30.0486 66.6247 30.0904Z" fill="white"/>
<path d="M65.7397 30.3828C65.6235 30.4216 65.4953 30.359 65.4536 30.2398L65.2778 29.7092C65.2391 29.593 65.3016 29.4648 65.4208 29.4231C65.537 29.3843 65.6652 29.4469 65.7069 29.5661L65.8827 30.0967C65.9185 30.2159 65.8559 30.3441 65.7397 30.3828Z" fill="white"/>
<path d="M64.8517 30.6778C64.7355 30.7165 64.6074 30.6539 64.5657 30.5347L64.3899 30.0041C64.3511 29.8879 64.4137 29.7597 64.5329 29.718C64.6491 29.6792 64.7772 29.7418 64.819 29.8611L64.9948 30.3916C65.0335 30.5108 64.9709 30.639 64.8517 30.6778Z" fill="white"/>
<path d="M63.9665 30.9727C63.8503 31.0114 63.7221 30.9488 63.6804 30.8296L63.5046 30.2991C63.4659 30.1828 63.5284 30.0546 63.6476 30.0129C63.7638 29.9742 63.892 30.0368 63.9337 30.156L64.1095 30.6865C64.1482 30.8058 64.0857 30.9339 63.9665 30.9727Z" fill="white"/>
<path d="M63.0817 31.2681C62.9655 31.3068 62.8374 31.2442 62.7956 31.125L62.6198 30.5945C62.5811 30.4782 62.6437 30.35 62.7629 30.3083C62.8791 30.2696 63.0072 30.3322 63.0489 30.4514L63.2247 30.9819C63.2635 31.1012 63.1979 31.2293 63.0817 31.2681Z" fill="white"/>
<path d="M62.1967 31.563C62.0805 31.6018 61.9524 31.5392 61.9106 31.4199L61.7348 30.8894C61.6961 30.7731 61.7587 30.645 61.8779 30.6032C61.9941 30.5645 62.1222 30.6271 62.1639 30.7463L62.3397 31.2769C62.3785 31.3961 62.3129 31.5243 62.1967 31.563Z" fill="white"/>
<path d="M61.3085 31.8579C61.1923 31.8967 61.0642 31.8341 61.0225 31.7149L60.8466 31.1843C60.8079 31.0681 60.8705 30.9399 60.9897 30.8982C61.1059 30.8594 61.234 30.922 61.2757 31.0412L61.4515 31.5718C61.4903 31.691 61.4277 31.8192 61.3085 31.8579Z" fill="white"/>
<path d="M60.4235 32.1533C60.3073 32.1921 60.1792 32.1295 60.1374 32.0103L59.9616 31.4797C59.9229 31.3635 59.9855 31.2353 60.1047 31.1936C60.2209 31.1548 60.349 31.2174 60.3907 31.3366L60.5665 31.8672C60.6053 31.9864 60.5427 32.1146 60.4235 32.1533Z" fill="white"/>
<path d="M59.5385 32.4483C59.4223 32.487 59.2942 32.4244 59.2524 32.3052L59.0766 31.7746C59.0379 31.6584 59.1005 31.5302 59.2197 31.4885C59.3359 31.4497 59.464 31.5123 59.5057 31.6316L59.6815 32.1621C59.7203 32.2813 59.6547 32.4095 59.5385 32.4483Z" fill="white"/>
<path d="M58.6537 32.7432C58.5375 32.7819 58.4094 32.7193 58.3677 32.6001L58.1919 32.0696C58.1531 31.9533 58.2157 31.8251 58.3349 31.7834C58.4511 31.7447 58.5792 31.8073 58.621 31.9265L58.7968 32.457C58.8355 32.5763 58.7699 32.7044 58.6537 32.7432Z" fill="white"/>
<path d="M57.7687 33.0386C57.6525 33.0773 57.5244 33.0147 57.4827 32.8955L57.3069 32.365C57.2681 32.2487 57.3307 32.1206 57.4499 32.0788C57.5661 32.0401 57.6942 32.1027 57.7359 32.2219L57.9118 32.7525C57.9505 32.8717 57.8849 32.9998 57.7687 33.0386Z" fill="white"/>
<path d="M56.8805 33.3335C56.7643 33.3723 56.6362 33.3097 56.5945 33.1904L56.4187 32.6599C56.3799 32.5436 56.4425 32.4155 56.5617 32.3738C56.6779 32.335 56.806 32.3976 56.8478 32.5168L57.0236 33.0474C57.0623 33.1666 56.9997 33.2948 56.8805 33.3335Z" fill="white"/>
<path d="M55.9958 33.6284C55.8796 33.6672 55.7514 33.6046 55.7097 33.4854L55.5339 32.9548C55.4952 32.8386 55.5577 32.7104 55.6769 32.6687C55.7931 32.6299 55.9213 32.6925 55.963 32.8117L56.1388 33.3423C56.1775 33.4615 56.115 33.5897 55.9958 33.6284Z" fill="white"/>
<path d="M55.1108 33.9238C54.9946 33.9626 54.8664 33.9 54.8247 33.7808L54.6489 33.2502C54.6102 33.134 54.6727 33.0058 54.7919 32.9641C54.9081 32.9253 55.0363 32.9879 55.078 33.1072L55.2538 33.6377C55.2925 33.7569 55.227 33.8851 55.1108 33.9238Z" fill="white"/>
<path d="M54.2258 34.2188C54.1095 34.2575 53.9814 34.1949 53.9397 34.0757L53.7639 33.5451C53.7251 33.4289 53.7877 33.3007 53.9069 33.259C54.0231 33.2203 54.1513 33.2828 54.193 33.4021L54.3688 33.9326C54.4075 34.0519 54.342 34.18 54.2258 34.2188Z" fill="white"/>
<path d="M53.3407 34.5137C53.2245 34.5524 53.0964 34.4898 53.0547 34.3706L52.8789 33.8401C52.8401 33.7238 52.9027 33.5957 53.0219 33.5539C53.1381 33.5152 53.2662 33.5778 53.308 33.697L53.4838 34.2276C53.5225 34.3468 53.457 34.4749 53.3407 34.5137Z" fill="white"/>
<path d="M52.4526 34.8091C52.3363 34.8479 52.2082 34.7853 52.1665 34.666L51.9907 34.1355C51.952 34.0192 52.0145 33.8911 52.1337 33.8493C52.2499 33.8106 52.3781 33.8732 52.4198 33.9924L52.5956 34.523C52.6343 34.6422 52.5718 34.7704 52.4526 34.8091Z" fill="white"/>
<path d="M51.5676 35.104C51.4513 35.1428 51.3232 35.0802 51.2815 34.961L51.1057 34.4304C51.0669 34.3142 51.1295 34.186 51.2487 34.1443C51.3649 34.1055 51.4931 34.1681 51.5348 34.2873L51.7106 34.8179C51.7493 34.9341 51.6867 35.0623 51.5676 35.104Z" fill="white"/>
<path d="M50.6825 35.3989C50.5663 35.4377 50.4382 35.3751 50.3965 35.2559L50.2207 34.7253C50.1819 34.6091 50.2445 34.4809 50.3637 34.4392C50.4799 34.4004 50.608 34.463 50.6498 34.5822L50.8256 35.1128C50.8643 35.2291 50.7988 35.3572 50.6825 35.3989Z" fill="white"/>
<path d="M49.7978 35.6939C49.6816 35.7326 49.5534 35.67 49.5117 35.5508L49.3359 35.0202C49.2972 34.904 49.3597 34.7758 49.4789 34.7341C49.5951 34.6954 49.7233 34.7579 49.765 34.8772L49.9408 35.4077C49.9795 35.524 49.914 35.6521 49.7978 35.6939Z" fill="white"/>
<path d="M48.9125 35.9863C48.7963 36.0251 48.6682 35.9625 48.6265 35.8433L48.4507 35.3127C48.4119 35.1965 48.4745 35.0683 48.5937 35.0266C48.7099 34.9878 48.838 35.0504 48.8797 35.1697L49.0556 35.7002C49.0943 35.8194 49.0287 35.9476 48.9125 35.9863Z" fill="white"/>
<path d="M48.0248 36.2813C47.9086 36.32 47.7805 36.2574 47.7388 36.1382L47.563 35.6076C47.5242 35.4914 47.5868 35.3632 47.706 35.3215C47.8222 35.2828 47.9503 35.3454 47.992 35.4646L48.1679 35.9951C48.2066 36.1144 48.144 36.2425 48.0248 36.2813Z" fill="white"/>
<path d="M47.1398 36.5762C47.0236 36.6149 46.8955 36.5523 46.8538 36.4331L46.6779 35.9026C46.6392 35.7863 46.7018 35.6582 46.821 35.6164C46.9372 35.5777 47.0653 35.6403 47.107 35.7595L47.2828 36.2901C47.3216 36.4093 47.259 36.5374 47.1398 36.5762Z" fill="white"/>
<path d="M46.2548 36.8716C46.1386 36.9103 46.0105 36.8478 45.9687 36.7285L45.7929 36.198C45.7542 36.0817 45.8168 35.9536 45.936 35.9118C46.0522 35.8731 46.1803 35.9357 46.222 36.0549L46.3978 36.5855C46.4366 36.7047 46.371 36.8329 46.2548 36.8716Z" fill="white"/>
<path d="M45.3698 37.1665C45.2536 37.2053 45.1255 37.1427 45.0837 37.0235L44.9079 36.4929C44.8692 36.3767 44.9318 36.2485 45.051 36.2068C45.1672 36.168 45.2953 36.2306 45.337 36.3498L45.5128 36.8804C45.5516 36.9996 45.486 37.1278 45.3698 37.1665Z" fill="white"/>
<path d="M44.4816 37.4614C44.3654 37.5002 44.2373 37.4376 44.1956 37.3184L44.0197 36.7878C43.981 36.6716 44.0436 36.5434 44.1628 36.5017C44.279 36.4629 44.4071 36.5255 44.4488 36.6448L44.6246 37.1753C44.6634 37.2945 44.6008 37.4227 44.4816 37.4614Z" fill="white"/>
<path d="M43.5966 37.7569C43.4804 37.7956 43.3523 37.733 43.3105 37.6138L43.1347 37.0832C43.096 36.967 43.1586 36.8388 43.2778 36.7971C43.394 36.7583 43.5221 36.8209 43.5638 36.9402L43.7396 37.4707C43.7784 37.5899 43.7158 37.7181 43.5966 37.7569Z" fill="white"/>
<path d="M42.7116 38.0518C42.5954 38.0905 42.4672 38.0279 42.4255 37.9087L42.2497 37.3782C42.211 37.2619 42.2736 37.1337 42.3928 37.092C42.509 37.0533 42.6371 37.1159 42.6788 37.2351L42.8546 37.7656C42.8934 37.8849 42.8308 38.013 42.7116 38.0518Z" fill="white"/>
<path d="M41.8266 38.3467C41.7104 38.3854 41.5822 38.3229 41.5405 38.2036L41.3647 37.6731C41.326 37.5568 41.3886 37.4287 41.5077 37.3869C41.624 37.3482 41.7521 37.4108 41.7938 37.53L41.9696 38.0606C42.0084 38.1798 41.9428 38.308 41.8266 38.3467Z" fill="white"/>
<path d="M40.9416 38.6421C40.8254 38.6809 40.6972 38.6183 40.6555 38.499L40.4797 37.9685C40.441 37.8522 40.5035 37.7241 40.6227 37.6823C40.7389 37.6436 40.8671 37.7062 40.9088 37.8254L41.0846 38.356C41.1233 38.4752 41.0578 38.6034 40.9416 38.6421Z" fill="white"/>
<path d="M40.0539 38.937C39.9377 38.9758 39.8095 38.9132 39.7678 38.794L39.592 38.2634C39.5533 38.1472 39.6158 38.019 39.735 37.9773C39.8513 37.9385 39.9794 38.0011 40.0211 38.1203L40.1969 38.6509C40.2356 38.7701 40.1731 38.8983 40.0539 38.937Z" fill="white"/>
<path d="M39.1686 39.232C39.0524 39.2707 38.9243 39.2081 38.8826 39.0889L38.7068 38.5583C38.668 38.4421 38.7306 38.3139 38.8498 38.2722C38.966 38.2334 39.0941 38.296 39.1358 38.4153L39.3117 38.9458C39.3504 39.065 39.2878 39.1932 39.1686 39.232Z" fill="white"/>
<path d="M38.2839 39.5274C38.1676 39.5661 38.0395 39.5035 37.9978 39.3843L37.822 38.8537C37.7833 38.7375 37.8458 38.6093 37.965 38.5676C38.0812 38.5288 38.2094 38.5914 38.2511 38.7107L38.4269 39.2412C38.4656 39.3604 38.4001 39.4886 38.2839 39.5274Z" fill="white"/>
<path d="M37.3986 39.8223C37.2824 39.861 37.1543 39.7984 37.1125 39.6792L36.9367 39.1487C36.898 39.0324 36.9606 38.9042 37.0798 38.8625C37.196 38.8238 37.3241 38.8864 37.3658 39.0056L37.5416 39.5361C37.5804 39.6554 37.5148 39.7835 37.3986 39.8223Z" fill="white"/>
<path d="M36.5136 40.1172C36.3974 40.156 36.2693 40.0934 36.2275 39.9741L36.0517 39.4436C36.013 39.3273 36.0756 39.1992 36.1948 39.1574C36.311 39.1187 36.4391 39.1813 36.4808 39.3005L36.6566 39.8311C36.6954 39.9503 36.6298 40.0785 36.5136 40.1172Z" fill="white"/>
<path d="M35.6257 40.4126C35.5094 40.4514 35.3813 40.3888 35.3396 40.2695L35.1638 39.739C35.125 39.6228 35.1876 39.4946 35.3068 39.4529C35.423 39.4141 35.5512 39.4767 35.5929 39.5959L35.7687 40.1265C35.8074 40.2457 35.7448 40.3739 35.6257 40.4126Z" fill="white"/>
<path d="M34.7406 40.7075C34.6244 40.7463 34.4963 40.6837 34.4546 40.5645L34.2788 40.0339C34.24 39.9177 34.3026 39.7895 34.4218 39.7478C34.538 39.709 34.6662 39.7716 34.7079 39.8908L34.8837 40.4214C34.9224 40.5376 34.8598 40.6688 34.7406 40.7075Z" fill="white"/>
<path d="M89.5422 18.8801L87.3431 18.3794C87.4146 18.5672 87.5159 18.9099 87.2567 19.2855C87.0064 19.6521 85.8323 20.6179 85.138 21.1633C84.6076 21.5597 84.0951 21.9234 83.7435 22.1618C83.4842 22.3347 83.371 22.6596 83.4604 22.9577C83.4634 22.9696 83.4664 22.9785 83.4693 22.9904C83.666 23.6492 84.4467 23.9234 85.0099 23.5299C85.3079 23.3213 85.6476 23.0799 86.0022 22.8206C86.0051 22.8176 86.0081 22.8176 86.0081 22.8146C86.023 22.8056 86.0349 22.7937 86.0498 22.7848C87.2388 21.8936 88.8866 20.5672 89.3515 19.8638C89.6494 19.5329 89.5898 19.059 89.5422 18.8801Z" fill="white"/>
<path d="M24.3293 43.2617L14.3619 51.837L12.7468 52.1947L14.3917 52.0069L24.9074 43.4257L24.3293 43.2617Z" fill="white"/>
<path d="M28.7634 38.156L11.3197 31.0024L7.94653 31.8102L11.3048 31.3363L28.5131 38.7402C28.674 38.8087 28.8588 38.7372 28.9273 38.5763C29.0078 38.4153 28.9303 38.2245 28.7634 38.156Z" fill="white"/>
<path d="M87.0035 18.3497C85.2454 18.1083 83.085 18.1441 80.0576 18.7611C73.4156 20.1173 29.24 38.2187 29.24 38.2187C29.24 38.2187 56.7317 28.4809 66.2044 24.9846C74.0681 22.0815 80.3347 19.7417 86.0529 20.0904C86.4582 19.8371 86.9528 19.2946 87.0601 19.086C87.224 18.773 87.1227 18.5375 87.0035 18.3497Z" fill="white"/>
<path d="M91.2381 19.715C90.8895 19.5064 90.5587 19.3007 89.8674 19.0474C89.9568 19.3752 89.9032 19.6703 89.6737 20.0399C89.5843 20.183 89.3906 20.3499 89.2446 20.5168C89.48 20.5705 89.632 20.6122 89.8644 20.6778C91.3394 21.1785 92.001 21.6584 91.9026 22.4006C92.2662 22.0817 92.4926 20.4661 91.2381 19.715Z" fill="white"/>
<path d="M65.3669 4.09326L64.166 23.7357L65.3103 23.3095L65.3669 4.09326Z" fill="white"/>
<path d="M62.8672 33.9146L31.3499 61.2053L59.9083 34.8475L62.8672 33.9146Z" fill="white"/>
<path d="M26.397 31.5391L24.6658 32.2991L26.254 31.7745L25.9709 36.8178L26.7844 37.1606L26.397 31.5391Z" fill="white"/>
</g>
<mask id="mask0_133_2743" style="mask-type:alpha" maskUnits="userSpaceOnUse" x="0" y="16" width="76" height="76">
<circle cx="37.5514" cy="54.3837" r="37.4745" fill="#D9D9D9"/>
</mask>
<g mask="url(#mask0_133_2743)">
<rect x="-129.221" y="76.5176" width="294.975" height="122.723" fill="#00255C"/>
</g>
<path d="M95.6211 45.0029L92.8599 36.3772H94.0301L95.4108 41.0319C95.5685 41.5491 95.7044 42.0269 95.8184 42.4652C95.9411 42.9035 96.0857 43.3768 96.2523 43.8853H96.3049C96.4627 43.3768 96.6029 42.9035 96.7257 42.4652C96.8484 42.0269 96.9842 41.5491 97.1333 41.0319L98.5139 36.3772H99.6316L96.8966 45.0029H95.6211ZM102.388 45.0029V36.3772H103.48V45.0029H102.388ZM109.813 45.1607C109.209 45.1607 108.647 45.0468 108.13 44.8188C107.613 44.5909 107.166 44.2797 106.789 43.8853L107.447 43.1226C107.753 43.447 108.113 43.71 108.525 43.9116C108.946 44.1044 109.379 44.2008 109.827 44.2008C110.396 44.2008 110.839 44.0737 111.155 43.8195C111.47 43.5565 111.628 43.2147 111.628 42.7939C111.628 42.5748 111.588 42.3907 111.51 42.2417C111.439 42.0839 111.339 41.9524 111.207 41.8472C111.084 41.7332 110.935 41.6324 110.76 41.5448C110.585 41.4571 110.396 41.3651 110.195 41.2686L108.959 40.7295C108.757 40.6419 108.551 40.5367 108.341 40.4139C108.13 40.2912 107.942 40.1422 107.775 39.9669C107.609 39.7916 107.473 39.5856 107.368 39.3489C107.262 39.1034 107.21 38.8229 107.21 38.5074C107.21 38.183 107.276 37.8806 107.407 37.6001C107.547 37.3196 107.736 37.0785 107.973 36.8769C108.218 36.6665 108.503 36.5043 108.827 36.3904C109.16 36.2764 109.524 36.2194 109.919 36.2194C110.436 36.2194 110.913 36.3202 111.352 36.5219C111.79 36.7147 112.163 36.9689 112.469 37.2845L111.878 37.9945C111.615 37.7403 111.321 37.5431 110.997 37.4028C110.681 37.2538 110.322 37.1793 109.919 37.1793C109.436 37.1793 109.046 37.2933 108.748 37.5212C108.459 37.7403 108.314 38.0471 108.314 38.4416C108.314 38.652 108.354 38.8317 108.433 38.9807C108.52 39.121 108.634 39.2481 108.775 39.362C108.915 39.4672 109.068 39.5637 109.235 39.6513C109.401 39.7302 109.572 39.8047 109.748 39.8748L110.97 40.4008C111.216 40.506 111.448 40.6287 111.667 40.769C111.887 40.9005 112.075 41.0582 112.233 41.2423C112.391 41.4177 112.513 41.628 112.601 41.8735C112.697 42.1102 112.746 42.3863 112.746 42.7019C112.746 43.0437 112.675 43.3637 112.535 43.6617C112.404 43.9598 112.211 44.2228 111.957 44.4507C111.702 44.6698 111.396 44.8451 111.036 44.9766C110.677 45.0994 110.269 45.1607 109.813 45.1607ZM117.508 40.1773L117.1 41.4922H119.691L119.283 40.1773C119.125 39.6951 118.976 39.2174 118.836 38.744C118.696 38.2619 118.555 37.771 118.415 37.2714H118.363C118.231 37.771 118.095 38.2619 117.955 38.744C117.815 39.2174 117.666 39.6951 117.508 40.1773ZM114.878 45.0029L117.797 36.3772H119.033L121.952 45.0029H120.782L119.967 42.3731H116.824L115.996 45.0029H114.878ZM128.962 45.0029V36.3772H130.054V45.0029H128.962ZM133.994 45.0029V36.3772H135.309L136.966 40.9794C137.071 41.2774 137.172 41.5798 137.269 41.8866C137.374 42.1847 137.479 42.4827 137.584 42.7808H137.637C137.742 42.4827 137.838 42.1847 137.926 41.8866C138.022 41.5798 138.123 41.2774 138.228 40.9794L139.859 36.3772H141.187V45.0029H140.161V40.2562C140.161 39.8705 140.179 39.4453 140.214 38.9807C140.249 38.5161 140.28 38.091 140.306 37.7053H140.253L139.57 39.6645L137.939 44.1351H137.216L135.585 39.6645L134.902 37.7053H134.849C134.875 38.091 134.902 38.5161 134.928 38.9807C134.963 39.4453 134.981 39.8705 134.981 40.2562V45.0029H133.994ZM145.126 45.0029V36.3772H146.441L148.098 40.9794C148.203 41.2774 148.304 41.5798 148.4 41.8866C148.505 42.1847 148.61 42.4827 148.716 42.7808H148.768C148.873 42.4827 148.97 42.1847 149.057 41.8866C149.154 41.5798 149.255 41.2774 149.36 40.9794L150.99 36.3772H152.318V45.0029H151.293V40.2562C151.293 39.8705 151.31 39.4453 151.345 38.9807C151.38 38.5161 151.411 38.091 151.437 37.7053H151.385L150.701 39.6645L149.071 44.1351H148.347L146.717 39.6645L146.033 37.7053H145.981C146.007 38.091 146.033 38.5161 146.059 38.9807C146.095 39.4453 146.112 39.8705 146.112 40.2562V45.0029H145.126ZM156.257 45.0029V36.3772H157.349V45.0029H156.257ZM164.682 45.1607C164.112 45.1607 163.586 45.0599 163.104 44.8583C162.631 44.6567 162.223 44.3674 161.881 43.9905C161.539 43.6048 161.272 43.1358 161.079 42.5835C160.886 42.0225 160.79 41.3914 160.79 40.6901C160.79 39.9976 160.886 39.3752 161.079 38.8229C161.281 38.2707 161.557 37.8017 161.907 37.416C162.258 37.0303 162.674 36.7366 163.156 36.535C163.647 36.3246 164.178 36.2194 164.747 36.2194C165.046 36.2194 165.317 36.2501 165.563 36.3115C165.817 36.3728 166.045 36.4561 166.246 36.5613C166.457 36.6577 166.641 36.7717 166.799 36.9032C166.965 37.0259 167.11 37.153 167.233 37.2845L166.628 37.9945C166.409 37.7666 166.154 37.5738 165.865 37.416C165.576 37.2582 165.212 37.1793 164.774 37.1793C164.335 37.1793 163.941 37.2626 163.59 37.4291C163.24 37.5869 162.942 37.8192 162.696 38.126C162.451 38.4241 162.258 38.7879 162.118 39.2174C161.986 39.6469 161.92 40.1291 161.92 40.6638C161.92 41.2073 161.982 41.6982 162.105 42.1365C162.236 42.566 162.42 42.9342 162.657 43.241C162.902 43.5478 163.2 43.7845 163.551 43.951C163.91 44.1176 164.322 44.2008 164.787 44.2008C165.094 44.2008 165.383 44.157 165.655 44.0694C165.935 43.9729 166.163 43.8458 166.339 43.688V41.4396H164.511V40.5323H167.338V44.1614C167.057 44.4507 166.689 44.6917 166.233 44.8846C165.777 45.0687 165.26 45.1607 164.682 45.1607ZM170.983 45.0029V36.3772H173.678C174.116 36.3772 174.52 36.4211 174.888 36.5087C175.265 36.5876 175.585 36.7235 175.848 36.9163C176.119 37.1092 176.33 37.359 176.479 37.6658C176.628 37.9726 176.702 38.3496 176.702 38.7966C176.702 39.4716 176.527 40.0107 176.176 40.4139C175.826 40.8172 175.352 41.0933 174.756 41.2423L176.952 45.0029H175.716L173.639 41.3607H172.074V45.0029H170.983ZM172.074 40.4665H173.52C174.195 40.4665 174.712 40.3307 175.072 40.0589C175.431 39.7784 175.611 39.3577 175.611 38.7966C175.611 38.2268 175.431 37.828 175.072 37.6001C174.712 37.3722 174.195 37.2582 173.52 37.2582H172.074V40.4665ZM181.481 40.1773L181.073 41.4922H183.664L183.256 40.1773C183.098 39.6951 182.949 39.2174 182.809 38.744C182.669 38.2619 182.529 37.771 182.388 37.2714H182.336C182.204 37.771 182.068 38.2619 181.928 38.744C181.788 39.2174 181.639 39.6951 181.481 40.1773ZM178.851 45.0029L181.77 36.3772H183.006L185.925 45.0029H184.755L183.94 42.3731H180.797L179.969 45.0029H178.851ZM189.795 45.0029V37.2976H187.191V36.3772H193.503V37.2976H190.899V45.0029H189.795ZM196.634 45.0029V36.3772H197.725V45.0029H196.634ZM204.848 45.1607C204.304 45.1607 203.805 45.0555 203.349 44.8451C202.902 44.6348 202.516 44.3367 202.192 43.951C201.867 43.5565 201.613 43.0832 201.429 42.5309C201.254 41.9699 201.166 41.3431 201.166 40.6506C201.166 39.9581 201.254 39.3401 201.429 38.7966C201.613 38.2444 201.867 37.7798 202.192 37.4028C202.516 37.0171 202.902 36.7235 203.349 36.5219C203.805 36.3202 204.304 36.2194 204.848 36.2194C205.391 36.2194 205.887 36.3246 206.334 36.535C206.79 36.7366 207.18 37.0303 207.504 37.416C207.837 37.7929 208.091 38.2575 208.267 38.8098C208.451 39.3533 208.543 39.9669 208.543 40.6506C208.543 41.3431 208.451 41.9699 208.267 42.5309C208.091 43.0832 207.837 43.5565 207.504 43.951C207.18 44.3367 206.79 44.6348 206.334 44.8451C205.887 45.0555 205.391 45.1607 204.848 45.1607ZM204.848 44.2008C205.234 44.2008 205.58 44.1176 205.887 43.951C206.202 43.7845 206.47 43.5478 206.689 43.241C206.917 42.9254 207.092 42.5528 207.215 42.1233C207.337 41.685 207.399 41.1941 207.399 40.6506C207.399 40.1159 207.337 39.6338 207.215 39.2042C207.092 38.7747 206.917 38.4109 206.689 38.1129C206.47 37.8148 206.202 37.5869 205.887 37.4291C205.58 37.2626 205.234 37.1793 204.848 37.1793C204.462 37.1793 204.112 37.2626 203.796 37.4291C203.489 37.5869 203.222 37.8148 202.994 38.1129C202.775 38.4109 202.604 38.7747 202.481 39.2042C202.358 39.6338 202.297 40.1159 202.297 40.6506C202.297 41.1941 202.358 41.685 202.481 42.1233C202.604 42.5528 202.775 42.9254 202.994 43.241C203.222 43.5478 203.489 43.7845 203.796 43.951C204.112 44.1176 204.462 44.2008 204.848 44.2008ZM211.975 45.0029V36.3772H213.106L216.223 41.7946L217.156 43.5828H217.209C217.182 43.1445 217.152 42.6931 217.117 42.2285C217.09 41.7551 217.077 41.2905 217.077 40.8347V36.3772H218.116V45.0029H216.985L213.856 39.5724L212.922 37.7973H212.87C212.905 38.2356 212.935 38.6827 212.962 39.1385C212.997 39.5856 213.014 40.037 213.014 40.4928V45.0029H211.975Z" fill="#E13833"/>
<path d="M98.3839 69.1519H91.5199V68.3159C92.1065 67.9932 92.7005 67.7805 93.3019 67.6779V55.2259C93.0085 55.1819 92.7005 55.1012 92.3779 54.9839C92.0552 54.8665 91.7692 54.7345 91.5199 54.5879V53.7519H98.3839V54.5879C98.1199 54.7492 97.8265 54.8885 97.5039 55.0059C97.1959 55.1085 96.8952 55.1819 96.6019 55.2259V67.6779C96.8952 67.7365 97.1959 67.8172 97.5039 67.9199C97.8265 68.0225 98.1199 68.1545 98.3839 68.3159V69.1519ZM119.923 69.1519H113.345V68.3159C113.639 68.1692 113.925 68.0445 114.203 67.9419C114.482 67.8392 114.783 67.7512 115.105 67.6779V58.4819L115.215 55.9079H115.039L114.313 58.2619L110.067 69.1519H109.055L104.831 58.3499L104.039 55.7759H103.841L103.863 58.5699V67.5899C104.142 67.6485 104.45 67.7439 104.787 67.8759C105.125 68.0079 105.44 68.1545 105.733 68.3159V69.1519H100.365V68.3159C100.6 68.1985 100.886 68.0592 101.223 67.8979C101.575 67.7365 101.905 67.6265 102.213 67.5679V55.2259C101.92 55.1672 101.605 55.0865 101.267 54.9839C100.945 54.8812 100.659 54.7492 100.409 54.5879V53.7519H106.371L109.737 62.7059L110.375 64.8179H110.397L111.057 62.6619L114.489 53.7519H119.945V54.5879C119.696 54.7345 119.425 54.8665 119.131 54.9839C118.853 55.0865 118.567 55.1672 118.273 55.2259V67.6999C118.581 67.7585 118.875 67.8465 119.153 67.9639C119.447 68.0812 119.703 68.1985 119.923 68.3159V69.1519ZM141.257 69.1519H134.679V68.3159C134.972 68.1692 135.258 68.0445 135.537 67.9419C135.815 67.8392 136.116 67.7512 136.439 67.6779V58.4819L136.549 55.9079H136.373L135.647 58.2619L131.401 69.1519H130.389L126.165 58.3499L125.373 55.7759H125.175L125.197 58.5699V67.5899C125.475 67.6485 125.783 67.7439 126.121 67.8759C126.458 68.0079 126.773 68.1545 127.067 68.3159V69.1519H121.699V68.3159C121.933 68.1985 122.219 68.0592 122.557 67.8979C122.909 67.7365 123.239 67.6265 123.547 67.5679V55.2259C123.253 55.1672 122.938 55.0865 122.601 54.9839C122.278 54.8812 121.992 54.7492 121.743 54.5879V53.7519H127.705L131.071 62.7059L131.709 64.8179H131.731L132.391 62.6619L135.823 53.7519H141.279V54.5879C141.029 54.7345 140.758 54.8665 140.465 54.9839C140.186 55.0865 139.9 55.1672 139.607 55.2259V67.6999C139.915 67.7585 140.208 67.8465 140.487 67.9639C140.78 68.0812 141.037 68.1985 141.257 68.3159V69.1519ZM150.116 69.1519H143.252V68.3159C143.838 67.9932 144.432 67.7805 145.034 67.6779V55.2259C144.74 55.1819 144.432 55.1012 144.11 54.9839C143.787 54.8665 143.501 54.7345 143.252 54.5879V53.7519H150.116V54.5879C149.852 54.7492 149.558 54.8885 149.236 55.0059C148.928 55.1085 148.627 55.1819 148.334 55.2259V67.6779C148.627 67.7365 148.928 67.8172 149.236 67.9199C149.558 68.0225 149.852 68.1545 150.116 68.3159V69.1519ZM165.649 68.1839C165.356 68.3305 164.997 68.4772 164.571 68.6239C164.146 68.7705 163.699 68.9025 163.229 69.0199C162.76 69.1372 162.291 69.2325 161.821 69.3059C161.352 69.3792 160.934 69.4159 160.567 69.4159C159.306 69.4159 158.177 69.2545 157.179 68.9319C156.197 68.5945 155.353 68.0959 154.649 67.4359C153.96 66.7612 153.432 65.9252 153.065 64.9279C152.699 63.9305 152.515 62.7719 152.515 61.4519C152.515 60.0145 152.735 58.7972 153.175 57.7999C153.63 56.7879 154.224 55.9665 154.957 55.3359C155.705 54.6905 156.549 54.2212 157.487 53.9279C158.426 53.6345 159.387 53.4879 160.369 53.4879C161.337 53.4879 162.247 53.5539 163.097 53.6859C163.948 53.8179 164.623 54.0085 165.121 54.2579C165.121 54.4779 165.107 54.7639 165.077 55.1159C165.063 55.4532 165.033 55.8199 164.989 56.2159C164.945 56.6119 164.887 57.0079 164.813 57.4039C164.755 57.7999 164.681 58.1592 164.593 58.4819H163.691L162.459 55.1379C162.298 55.0645 162.056 55.0132 161.733 54.9839C161.411 54.9399 161.088 54.9179 160.765 54.9179C160.164 54.9179 159.585 55.0352 159.027 55.2699C158.47 55.5045 157.979 55.8859 157.553 56.4139C157.128 56.9272 156.791 57.6019 156.541 58.4379C156.292 59.2592 156.167 60.2639 156.167 61.4519C156.167 62.4199 156.277 63.3072 156.497 64.1139C156.732 64.9059 157.055 65.5879 157.465 66.1599C157.876 66.7319 158.367 67.1792 158.939 67.5019C159.511 67.8245 160.142 67.9859 160.831 67.9859C161.051 67.9859 161.279 67.9712 161.513 67.9419C161.748 67.8979 161.968 67.8465 162.173 67.7879C162.379 67.7292 162.555 67.6632 162.701 67.5899C162.863 67.5165 162.973 67.4505 163.031 67.3919V63.2559C162.65 63.2265 162.291 63.1532 161.953 63.0359C161.616 62.9185 161.301 62.7792 161.007 62.6179V61.7819H167.013V62.6179C166.881 62.7499 166.705 62.8745 166.485 62.9919C166.265 63.0945 165.987 63.1825 165.649 63.2559V68.1839ZM187.165 55.2259C186.578 55.1379 185.962 54.9252 185.317 54.5879V53.7519H190.861V54.5879C190.612 54.7492 190.348 54.8812 190.069 54.9839C189.79 55.0865 189.519 55.1672 189.255 55.2259L185.361 69.1519L183.073 69.4159L179.663 58.7679L176.341 69.1519L174.031 69.4159L169.741 55.2259C169.433 55.1672 169.147 55.0865 168.883 54.9839C168.619 54.8665 168.37 54.7345 168.135 54.5879V53.7519H175.263V54.5879C175.014 54.7199 174.728 54.8445 174.405 54.9619C174.097 55.0645 173.774 55.1525 173.437 55.2259L175.483 62.9919L175.945 65.8519H175.989L176.759 62.8819L179.685 53.7519H180.983L184.107 62.7719L184.855 65.6319H184.899L185.405 62.7279L187.165 55.2259ZM194.988 69.1519H189.554V68.3159C189.789 68.1692 190.038 68.0445 190.302 67.9419C190.581 67.8245 190.852 67.7365 191.116 67.6779L196.792 53.4879H198.42L203.942 67.6779C204.235 67.7365 204.529 67.8245 204.822 67.9419C205.115 68.0445 205.372 68.1692 205.592 68.3159V69.1519H198.706V68.3159C198.985 68.1839 199.285 68.0592 199.608 67.9419C199.931 67.8245 200.239 67.7365 200.532 67.6779L199.256 64.1799H194.372L193.074 67.6779C193.749 67.7659 194.387 67.9785 194.988 68.3159V69.1519ZM194.9 62.7499H198.794L197.364 58.5479L196.946 56.6559H196.902L196.418 58.5919L194.9 62.7499ZM214.236 53.7519H219.626V54.5879C219.406 54.7199 219.157 54.8519 218.878 54.9839C218.614 55.1012 218.343 55.1819 218.064 55.2259L213.796 62.7059V67.6779C214.089 67.7072 214.375 67.7879 214.654 67.9199C214.947 68.0372 215.219 68.1692 215.468 68.3159V69.1519H208.692V68.3159C208.941 68.1839 209.22 68.0592 209.528 67.9419C209.836 67.8245 210.159 67.7365 210.496 67.6779V62.7279L206.052 55.2259C205.715 55.1672 205.392 55.0792 205.084 54.9619C204.791 54.8445 204.519 54.7199 204.27 54.5879V53.7519H211.486V54.5879C211.281 54.7052 211.046 54.8225 210.782 54.9399C210.518 55.0572 210.21 55.1525 209.858 55.2259L213.004 61.1219L215.996 55.2259C215.659 55.1525 215.336 55.0572 215.028 54.9399C214.72 54.8225 214.456 54.7052 214.236 54.5879V53.7519Z" fill="#00255C"/>
<defs>
<clipPath id="clip0_133_2743">
<rect width="92.9192" height="72.7575" fill="white" transform="translate(0.0769043 0.692383)"/>
</clipPath>
</defs>
</svg>
